HIERARCHY
ROOT Hips
{
	OFFSET 0.000000 0.000000 0.000000
	CHANNELS 6 Xposition Yposition Zposition Xrotation Yrotation Zrotation
	JOINT LeftUpLeg_virtual
	{
		OFFSET 0.000000 0.000000 0.000000
		CHANNELS 3 Xrotation Yrotation Zrotation
		JOINT LeftUpLeg
		{
			OFFSET 11.394100 -6.187798 -0.413800
			CHANNELS 3 Xrotation Yrotation Zrotation
			JOINT LeftLeg
			{
				OFFSET 0.430247 -32.302673 3.732800
				CHANNELS 3 Xrotation Yrotation Zrotation
				JOINT LeftFoot
				{
					OFFSET -0.430247 -48.264931 -6.423300
					CHANNELS 3 Xrotation Yrotation Zrotation
					JOINT LeftToeBase
					{
						OFFSET 4.230900 -16.068199 23.438400
						CHANNELS 3 Xrotation Yrotation Zrotation
						JOINT LeftToe_End
						{
							OFFSET 4.510700 0.695400 19.974600
							CHANNELS 3 Xrotation Yrotation Zrotation
							End Site
							{
								OFFSET 0 0 0
							}
						}
					}
				}
			}
		}
	}
	JOINT RightUpLeg_virtual
	{
		OFFSET 0.000000 0.000000 0.000000
		CHANNELS 3 Xrotation Yrotation Zrotation
		JOINT RightUpLeg
		{
			OFFSET -11.333700 -6.187798 -0.413800
			CHANNELS 3 Xrotation Yrotation Zrotation
			JOINT RightLeg
			{
				OFFSET -0.430392 -32.302628 3.733000
				CHANNELS 3 Xrotation Yrotation Zrotation
				JOINT RightFoot
				{
					OFFSET 0.430392 -48.264973 -6.423500
					CHANNELS 3 Xrotation Yrotation Zrotation
					JOINT RightToeBase
					{
						OFFSET -4.230900 -16.068199 23.438400
						CHANNELS 3 Xrotation Yrotation Zrotation
						JOINT RightToe_End
						{
							OFFSET -4.510700 0.695400 19.974600
							CHANNELS 3 Xrotation Yrotation Zrotation
							End Site
							{
								OFFSET 0 0 0
							}
						}
					}
				}
			}
		}
	}
	JOINT Spine_virtual
	{
		OFFSET 0.000000 0.000000 0.000000
		CHANNELS 3 Xrotation Yrotation Zrotation
		JOINT Spine
		{
			OFFSET -0.002400 12.777504 0.315300
			CHANNELS 3 Xrotation Yrotation Zrotation
			JOINT Spine1
			{
				OFFSET -0.002067 5.816869 0.032633
				CHANNELS 3 Xrotation Yrotation Zrotation
				JOINT Spine1_split
				{
					OFFSET -0.002067 5.816869 0.032633
					CHANNELS 3 Xrotation Yrotation Zrotation
					JOINT Spine2
					{
						OFFSET -0.002067 5.816869 0.032633
						CHANNELS 3 Xrotation Yrotation Zrotation
						JOINT Neck_virtual
						{
							OFFSET 0.000000 0.000000 0.000000
							CHANNELS 3 Xrotation Yrotation Zrotation
							JOINT Neck
							{
								OFFSET -0.003700 21.199493 -0.826900
								CHANNELS 3 Xrotation Yrotation Zrotation
								JOINT Head
								{
									OFFSET 0.000000 20.442200 4.834800
									CHANNELS 3 Xrotation Yrotation Zrotation
									JOINT HeadTop_End
									{
										OFFSET 0.000000 34.668396 4.968400
										CHANNELS 3 Xrotation Yrotation Zrotation
										End Site
										{
											OFFSET 0 0 0
										}
									}
								}
							}
						}
						JOINT LeftShoulder_virtual
						{
							OFFSET 0.000000 0.000000 0.000000
							CHANNELS 3 Xrotation Yrotation Zrotation
							JOINT LeftShoulder
							{
								OFFSET 3.288150 8.794197 -1.372250
								CHANNELS 3 Xrotation Yrotation Zrotation
								JOINT LeftShoulder_split
								{
									OFFSET 3.288150 8.794197 -1.372250
									CHANNELS 3 Xrotation Yrotation Zrotation
									JOINT LeftArm
									{
										OFFSET 11.953299 -2.279007 -0.146200
										CHANNELS 3 Xrotation Yrotation Zrotation
										JOINT LeftForeArm
										{
											OFFSET 18.448900 0.000000 0.000000
											CHANNELS 3 Xrotation Yrotation Zrotation
											JOINT LeftHand
											{
												OFFSET 29.527798 0.000000 0.000000
												CHANNELS 3 Xrotation Yrotation Zrotation
												End Site
												{
													OFFSET 0 0 0
												}
											}
										}
									}
								}
							}
						}
						JOINT RightShoulder_virtual
						{
							OFFSET 0.000000 0.000000 0.000000
							CHANNELS 3 Xrotation Yrotation Zrotation
							JOINT RightShoulder
							{
								OFFSET -3.249400 8.794197 -1.372250
								CHANNELS 3 Xrotation Yrotation Zrotation
								JOINT RightShoulder_split
								{
									OFFSET -3.249400 8.794197 -1.372250
									CHANNELS 3 Xrotation Yrotation Zrotation
									JOINT RightArm
									{
										OFFSET -11.953299 -2.279007 -0.146200
										CHANNELS 3 Xrotation Yrotation Zrotation
										JOINT RightForeArm
										{
											OFFSET -18.448900 0.000000 0.000000
											CHANNELS 3 Xrotation Yrotation Zrotation
											JOINT RightHand
											{
												OFFSET -29.527802 0.000000 0.000000
												CHANNELS 3 Xrotation Yrotation Zrotation
												End Site
												{
													OFFSET 0 0 0
												}
											}
										}
									}
								}
							}
						}
					}
				}
			}
		}
	}
}
MOTION
Frames: 8
Frame Time: 0.03333333
-23.184515 137.783279 31.475416 0.000000 0.000000 0.000000 6.754359 -18.330269 2.010073 -23.482530 8.906731 4.959753 26.500014 13.669439 5.869876 20.998141 -0.625798 0.906670 3.156288 0.930003 0.842128 0.000000 0.000000 0.000000 5.772019 -17.247223 1.403614 -6.555000 -5.274397 -3.933039 10.904744 -16.481146 0.040809 33.745386 -0.263169 -3.730042 10.430030 -2.248183 -1.666210 0.000000 0.000000 0.000000 5.862289 -15.565482 1.501900 -0.578775 3.557611 2.891441 -5.209283 1.179065 -1.617924 2.227796 -2.804135 0.467580 0.000000 0.000000 0.000000 -0.719268 1.277130 -2.385589 -27.756958 2.407993 -0.555708 -6.924514 3.765009 4.311277 0.000000 0.000000 0.000000 -3.719063 1.244898 -1.756933 4.474032 -3.346818 22.195458 4.496585 6.612097 0.751400 -56.276630 -24.669130 24.022402 -23.901675 -46.870712 9.481014 0.000000 0.000000 0.000000 -3.582085 0.725662 -1.349003 -4.548433 -11.272607 -26.386530 -0.584217 -2.235068 -2.138747 -84.578192 35.012967 33.383748 -31.602025 43.680467 -3.938352 0.000000 0.000000 0.000000 
-23.351017 134.849945 32.617195 0.000000 0.000000 0.000000 5.740031 -16.353618 1.182125 -27.042391 9.395806 5.486088 29.081146 13.962251 5.225442 29.036114 -1.197418 2.270886 4.930698 1.144993 0.712081 0.000000 0.000000 0.000000 5.332826 -14.248236 0.680502 -8.001875 -6.458446 -5.637933 13.866513 -14.122678 0.504864 38.276042 1.950179 -2.832636 8.634071 -0.840372 -1.690787 0.000000 0.000000 0.000000 4.431023 -13.912705 0.651186 -0.136404 3.835111 3.157036 -5.506002 1.084573 -1.271669 2.640321 -3.072563 0.807817 0.000000 0.000000 0.000000 -1.538972 1.238998 -1.886678 -27.244054 1.631536 -1.442786 -7.522601 2.238719 4.399763 0.000000 0.000000 0.000000 -4.295305 1.106706 -1.355939 5.307695 -2.328775 24.485431 3.627465 5.062443 1.805980 -52.043323 -18.843881 19.949914 -20.370238 -51.098824 11.680032 0.000000 0.000000 0.000000 -4.292000 0.705430 -0.847841 -2.331449 -9.460264 -24.075508 -1.476078 -2.983316 -2.114134 -79.717726 39.465786 31.363822 -30.701857 39.408866 0.024835 0.000000 0.000000 0.000000 
-23.492010 131.635178 34.051208 0.000000 0.000000 0.000000 4.548698 -14.800839 0.527853 -29.787804 9.607200 5.712955 31.115921 14.285077 4.965823 35.472369 -1.507033 4.743773 6.513072 1.223948 0.392005 0.000000 0.000000 0.000000 4.721702 -11.239146 0.121427 -8.928893 -7.066525 -6.419908 16.071698 -12.477174 0.585631 41.863363 3.148846 -2.073002 6.957318 0.350098 -0.859790 0.000000 0.000000 0.000000 2.666994 -12.533789 0.027356 0.342327 3.985967 3.271829 -5.834212 0.960636 -0.847380 2.557239 -3.052110 0.763020 0.000000 0.000000 0.000000 -2.627841 1.181196 -1.316037 -26.505070 1.291773 -2.547576 -7.459977 0.768898 4.346316 0.000000 0.000000 0.000000 -4.887016 0.959541 -0.881674 5.638074 -0.201579 27.333498 2.557088 3.185674 2.535440 -49.325171 -16.134510 14.807912 -19.253176 -51.310266 12.121059 0.000000 0.000000 0.000000 -5.277627 0.680560 -0.271634 -0.395198 -6.958598 -23.691208 -1.843591 -3.281089 -1.764471 -75.485564 41.305531 28.407394 -29.445140 33.735216 2.607095 0.000000 0.000000 0.000000 
-23.699783 128.967621 35.755852 0.000000 0.000000 0.000000 3.320118 -13.709869 0.135660 -30.790278 9.512340 5.333116 32.379454 14.896581 5.230805 38.814705 -1.155163 7.741416 8.097067 1.229776 -0.168457 0.000000 0.000000 0.000000 4.014836 -8.927966 -0.129805 -9.317568 -7.193384 -6.267698 17.193096 -12.114784 0.453274 44.078370 2.488414 -2.258124 6.791201 1.132413 0.895498 0.000000 0.000000 0.000000 1.062808 -11.487353 -0.262588 0.665524 4.052236 3.253400 -6.253089 0.860539 -0.441481 1.941380 -2.557133 0.433977 0.000000 0.000000 0.000000 -3.843396 1.125593 -0.801723 -25.424664 1.091357 -3.711521 -6.792480 -0.440120 4.173129 0.000000 0.000000 0.000000 -5.510464 0.854341 -0.454214 5.570784 2.270622 30.394991 1.711624 1.543586 2.923583 -48.763910 -16.506455 9.925488 -20.958485 -47.782275 10.481550 0.000000 0.000000 0.000000 -6.400875 0.692924 0.262273 1.125472 -4.430966 -25.279672 -1.823492 -2.858563 -1.128275 -73.675960 40.884553 26.104653 -28.019427 28.080166 3.895655 0.000000 0.000000 0.000000 
-23.980532 127.268402 37.621033 0.000000 0.000000 0.000000 2.257622 -12.857261 -0.031210 -29.749811 9.248547 4.528346 32.613084 15.664428 5.861412 39.515940 -0.405903 10.047601 8.855887 1.217332 -0.716424 0.000000 0.000000 0.000000 3.116242 -7.499604 -0.113940 -9.342492 -6.890278 -5.445594 17.274539 -12.682417 0.164697 45.426523 0.609793 -2.589557 6.414374 1.423645 2.922795 0.000000 0.000000 0.000000 -0.106058 -10.669492 -0.192506 0.695810 4.031929 3.117913 -6.793658 0.797285 -0.165861 1.368020 -1.959377 0.037770 0.000000 0.000000 0.000000 -5.041563 1.055288 -0.448208 -23.984494 0.794757 -4.754665 -5.608691 -1.259575 3.916657 0.000000 0.000000 0.000000 -6.161698 0.835418 -0.222477 5.324354 4.429614 33.187333 1.379598 0.290143 2.770357 -50.376938 -19.472169 5.755828 -23.908218 -41.945421 8.010218 0.000000 0.000000 0.000000 -7.377897 0.759469 0.621672 2.214633 -2.518159 -28.404160 -1.728399 -1.902343 -0.040320 -74.361096 39.170175 24.994637 -26.648543 23.850408 4.255229 0.000000 0.000000 0.000000 
-24.361551 126.554642 39.689789 0.000000 0.000000 0.000000 1.242280 -11.976427 0.019545 -27.562660 9.089386 3.685958 31.886082 16.392529 6.527984 38.737158 0.239682 11.125922 8.161169 1.258682 -0.897828 0.000000 0.000000 0.000000 2.061523 -6.746241 0.090425 -9.292441 -6.412264 -4.431311 17.192392 -13.572544 -0.045262 47.096183 -1.254904 -2.123720 3.849936 1.220200 4.501631 0.000000 0.000000 0.000000 -0.771218 -9.897322 0.158717 0.448462 3.938442 2.907876 -7.432258 0.747569 -0.048370 0.700971 -1.325749 -0.201886 0.000000 0.000000 0.000000 -6.122833 0.973433 -0.308619 -22.186908 0.386140 -5.518846 -4.026474 -1.659134 3.625465 0.000000 0.000000 0.000000 -6.831824 0.889088 -0.222768 5.136677 5.884378 35.279040 1.625457 -0.276786 2.083094 -53.201949 -23.519451 2.490135 -26.626106 -35.768041 5.839356 0.000000 0.000000 0.000000 -8.121241 0.878225 0.744151 2.837060 -1.502594 -32.242232 -1.468202 -0.507322 1.154393 -76.305289 36.947495 24.741672 -25.512683 22.003077 4.071048 0.000000 0.000000 0.000000 
-24.882166 126.605087 41.679821 0.000000 0.000000 0.000000 0.309025 -11.062586 0.206621 -25.156618 9.555647 3.191516 30.703821 16.976471 6.919058 37.613401 0.687430 10.975920 6.743357 1.333526 -0.769431 0.000000 0.000000 0.000000 1.022019 -6.240325 0.426929 -9.000326 -6.069991 -3.641844 16.647696 -14.060316 -0.210184 48.945665 -1.880923 -0.521900 -0.141172 0.748794 5.181290 0.000000 0.000000 0.000000 -1.036959 -9.142635 0.651658 0.008892 3.769847 2.717346 -8.109818 0.685529 -0.091687 0.491083 -0.695054 -0.157372 0.000000 0.000000 0.000000 -7.020128 0.885741 -0.361540 -20.302217 -0.102638 -5.980955 -2.311393 -1.579840 3.281667 0.000000 0.000000 0.000000 -7.500839 0.980223 -0.442110 5.210069 6.497973 36.423848 2.789501 -0.184293 1.149569 -56.107853 -27.387206 0.025897 -28.463359 -31.056228 4.258150 0.000000 0.000000 0.000000 -8.580084 1.028005 0.641339 3.104584 -1.272745 -35.859764 -1.124336 0.966606 2.261141 -77.972558 34.783524 24.899571 -24.541158 22.481969 3.625324 0.000000 0.000000 0.000000 
-25.456640 126.896591 43.686634 0.000000 0.000000 0.000000 -0.538919 -10.199860 0.436675 -23.315372 10.919476 3.107025 29.348428 17.552973 6.831025 36.517944 1.023106 10.177135 5.402207 1.410443 -0.402595 0.000000 0.000000 0.000000 0.072018 -5.785532 0.701049 -8.449105 -6.175072 -3.177295 15.454486 -14.071977 -0.363008 49.700503 -1.378883 1.232521 -3.225679 0.366663 4.994942 0.000000 0.000000 0.000000 -1.204794 -8.463223 1.125248 -0.496753 3.507541 2.565217 -8.753763 0.595837 -0.225363 0.371936 -0.561891 0.149355 0.000000 0.000000 0.000000 -7.727123 0.777159 -0.513476 -18.449775 -0.507617 -6.174690 -0.665444 -1.069024 2.838597 0.000000 0.000000 0.000000 -8.120170 1.060078 -0.786474 5.586710 6.449487 36.663667 4.080887 0.476456 0.114236 -58.158405 -30.385422 -1.581309 -29.190678 -28.194958 3.329271 0.000000 0.000000 0.000000 -8.805256 1.150724 0.390634 3.111451 -1.613781 -38.637806 -0.651150 2.047977 3.015552 -78.358191 33.190174 24.973019 -23.746109 24.409938 3.032059 0.000000 0.000000 0.000000 
